<svg xmlns="http://www.w3.org/2000/svg" width="14" height="14" viewBox="0 0 14 14">
    <g data-name="Group 24">
        <g data-name="Group 23" transform="translate(0 .462)">
            <path data-name="Path 2" d="M12.183 6.58a.5.5 0 0 1-.5-.5V4.635a1.083 1.083 0 0 0-1-1.152H2.008a.5.5 0 1 1 0-1h8.678a2.082 2.082 0 0 1 2.006 2.151V6.08a.5.5 0 0 1-.51.506z"/>
            <path data-name="Path 3" d="M10.686 12.984H2.007a2.082 2.082 0 0 1-2.006-2.151V1.782a.5.5 0 0 1 1 0v9.052a1.079 1.079 0 0 0 1 1.148h8.687a1.079 1.079 0 0 0 1-1.148v-1.02a.5.5 0 1 1 1 0v1.019a2.082 2.082 0 0 1-2.002 2.151z"/>
            <path data-name="Path 4" d="M10.481 3.481a.5.5 0 0 1-.5-.494V1.881a.9.9 0 0 0-.932-.87H1.827a.774.774 0 0 0-.8.742.774.774 0 0 0 .8.742H6.24a.5.5 0 0 1 0 1H1.815A1.777 1.777 0 0 1 .009 1.746 1.777 1.777 0 0 1 1.815 0h7.222a1.906 1.906 0 0 1 1.946 1.881V2.99a.5.5 0 0 1-.5.494zm2.026 6.821h-2.78a2.05 2.05 0 0 1-2.09-2.006v-.724a2.05 2.05 0 0 1 2.09-2.006h2.809a1.336 1.336 0 0 1 1.332 1.34v2.082a1.34 1.34 0 0 1-1.361 1.316zm-2.78-3.729a1.047 1.047 0 0 0-1.087 1v.746a1.047 1.047 0 0 0 1.087 1h2.781a.333.333 0 0 0 .333-.329V6.906a.313.313 0 0 0-.092-.213.325.325 0 0 0-.233-.1zm3.611 2.408z"/>
            <circle data-name="Ellipse 5" cx=".502" cy=".502" r=".502" transform="translate(9.502 7.443)"/>
        </g>
        <path data-name="Rectangle 74" style="fill:none" d="M0 0h14v14H0z"/>
    </g>
</svg>
